<?xml version="1.0" encoding="UTF-8"?><svg xmlns="http://www.w3.org/2000/svg" xmlns:xlink="http://www.w3.org/1999/xlink" fill-opacity="1" color-rendering="auto" color-interpolation="auto" text-rendering="auto" stroke="black" stroke-linecap="square" width="874" stroke-miterlimit="10" shape-rendering="auto" stroke-opacity="1" fill="black" stroke-dasharray="none" font-weight="normal" stroke-width="1" height="396" font-family="'Dialog'" font-style="normal" stroke-linejoin="miter" font-size="12px" stroke-dashoffset="0" image-rendering="auto">
  <!--Generated by ySVG 2.5-->
  <defs id="genericDefs"/>
  <g>
    <defs id="defs1">
      <clipPath clipPathUnits="userSpaceOnUse" id="clipPath1">
        <path d="M0 0 L874 0 L874 396 L0 396 L0 0 Z"/>
      </clipPath>
      <clipPath clipPathUnits="userSpaceOnUse" id="clipPath2">
        <path d="M-247 46 L627 46 L627 442 L-247 442 L-247 46 Z"/>
      </clipPath>
    </defs>
    <g fill="white" text-rendering="geometricPrecision" shape-rendering="geometricPrecision" transform="translate(247,-46)" stroke="white">
      <rect x="-247" width="874" height="396" y="46" clip-path="url(#clipPath2)" stroke="none"/>
    </g>
    <g fill="rgb(255,204,0)" text-rendering="geometricPrecision" shape-rendering="geometricPrecision" transform="matrix(1,0,0,1,247,-46)" stroke="rgb(255,204,0)">
      <rect x="335.2" width="86" height="30" y="411.8" clip-path="url(#clipPath2)" stroke="none"/>
    </g>
    <g text-rendering="geometricPrecision" stroke-miterlimit="1.45" shape-rendering="geometricPrecision" transform="matrix(1,0,0,1,247,-46)" stroke-linecap="butt">
      <rect fill="none" x="335.2" width="86" height="30" y="411.8" clip-path="url(#clipPath2)"/>
      <text x="331.9315" xml:space="preserve" y="430.9543" clip-path="url(#clipPath2)" font-family="sans-serif" stroke="none">Controller Type</text>
    </g>
    <g fill="rgb(255,204,0)" text-rendering="geometricPrecision" shape-rendering="geometricPrecision" transform="matrix(1,0,0,1,247,-46)" stroke="rgb(255,204,0)">
      <rect x="379.8" width="107.6" height="30" y="297.6" clip-path="url(#clipPath2)" stroke="none"/>
    </g>
    <g text-rendering="geometricPrecision" stroke-miterlimit="1.45" shape-rendering="geometricPrecision" transform="matrix(1,0,0,1,247,-46)" stroke-linecap="butt">
      <rect fill="none" x="379.8" width="107.6" height="30" y="297.6" clip-path="url(#clipPath2)"/>
      <text x="383.5785" xml:space="preserve" y="316.7543" clip-path="url(#clipPath2)" font-family="sans-serif" stroke="none">PersonController</text>
    </g>
    <g fill="rgb(255,204,0)" text-rendering="geometricPrecision" shape-rendering="geometricPrecision" transform="matrix(1,0,0,1,247,-46)" stroke="rgb(255,204,0)">
      <rect x="259.8" width="86" height="30" y="297.6" clip-path="url(#clipPath2)" stroke="none"/>
    </g>
    <g text-rendering="geometricPrecision" stroke-miterlimit="1.45" shape-rendering="geometricPrecision" transform="matrix(1,0,0,1,247,-46)" stroke-linecap="butt">
      <rect fill="none" x="259.8" width="86" height="30" y="297.6" clip-path="url(#clipPath2)"/>
      <text x="254.7561" xml:space="preserve" y="316.7543" clip-path="url(#clipPath2)" font-family="sans-serif" stroke="none">GroupController</text>
    </g>
    <g fill="rgb(255,204,0)" text-rendering="geometricPrecision" shape-rendering="geometricPrecision" transform="matrix(1,0,0,1,247,-46)" stroke="rgb(255,204,0)">
      <rect x="544" width="81.2" height="30" y="411.8" clip-path="url(#clipPath2)" stroke="none"/>
    </g>
    <g text-rendering="geometricPrecision" stroke-miterlimit="1.45" shape-rendering="geometricPrecision" transform="matrix(1,0,0,1,247,-46)" stroke-linecap="butt">
      <rect fill="none" x="544" width="81.2" height="30" y="411.8" clip-path="url(#clipPath2)"/>
      <text x="544.9789" xml:space="preserve" y="430.9543" clip-path="url(#clipPath2)" font-family="sans-serif" stroke="none">Process Type</text>
    </g>
    <g fill="aqua" text-rendering="geometricPrecision" shape-rendering="geometricPrecision" transform="matrix(1,0,0,1,247,-46)" stroke="aqua">
      <rect x="337.4" width="60" height="30" y="202.6" clip-path="url(#clipPath2)" stroke="none"/>
    </g>
    <g text-rendering="geometricPrecision" stroke-miterlimit="1.45" shape-rendering="geometricPrecision" transform="matrix(1,0,0,1,247,-46)" stroke-linecap="butt">
      <rect fill="none" x="337.4" width="60" height="30" y="202.6" clip-path="url(#clipPath2)"/>
      <text x="337.7545" xml:space="preserve" y="221.7543" clip-path="url(#clipPath2)" font-family="sans-serif" stroke="none">Controller</text>
    </g>
    <g fill="aqua" text-rendering="geometricPrecision" shape-rendering="geometricPrecision" transform="matrix(1,0,0,1,247,-46)" stroke="aqua">
      <rect x="190.8" width="98" height="30" y="112.6" clip-path="url(#clipPath2)" stroke="none"/>
    </g>
    <g text-rendering="geometricPrecision" stroke-miterlimit="1.45" shape-rendering="geometricPrecision" transform="matrix(1,0,0,1,247,-46)" stroke-linecap="butt">
      <rect fill="none" x="190.8" width="98" height="30" y="112.6" clip-path="url(#clipPath2)"/>
      <text x="194.8527" xml:space="preserve" y="131.7543" clip-path="url(#clipPath2)" font-family="sans-serif" stroke="none">STAMP Objects</text>
    </g>
    <g fill="aqua" text-rendering="geometricPrecision" shape-rendering="geometricPrecision" transform="matrix(1,0,0,1,247,-46)" stroke="aqua">
      <rect x="508" width="68.4" height="30" y="202.6" clip-path="url(#clipPath2)" stroke="none"/>
    </g>
    <g text-rendering="geometricPrecision" stroke-miterlimit="1.45" shape-rendering="geometricPrecision" transform="matrix(1,0,0,1,247,-46)" stroke-linecap="butt">
      <rect fill="none" x="508" width="68.4" height="30" y="202.6" clip-path="url(#clipPath2)"/>
      <text x="512.1356" xml:space="preserve" y="221.7543" clip-path="url(#clipPath2)" font-family="sans-serif" stroke="none">Capability</text>
    </g>
    <g fill="rgb(255,204,0)" text-rendering="geometricPrecision" shape-rendering="geometricPrecision" transform="matrix(1,0,0,1,247,-46)" stroke="rgb(255,204,0)">
      <rect x="205.6" width="68.4" height="30" y="46.8" clip-path="url(#clipPath2)" stroke="none"/>
    </g>
    <g text-rendering="geometricPrecision" stroke-miterlimit="1.45" shape-rendering="geometricPrecision" transform="matrix(1,0,0,1,247,-46)" stroke-linecap="butt">
      <rect fill="none" x="205.6" width="68.4" height="30" y="46.8" clip-path="url(#clipPath2)"/>
      <text x="206.0852" xml:space="preserve" y="65.9543" clip-path="url(#clipPath2)" font-family="sans-serif" stroke="none">Identifiable</text>
    </g>
    <g fill="rgb(255,204,0)" text-rendering="geometricPrecision" shape-rendering="geometricPrecision" transform="matrix(1,0,0,1,247,-46)" stroke="rgb(255,204,0)">
      <rect x="-55.2" width="134.8" height="30" y="207.2" clip-path="url(#clipPath2)" stroke="none"/>
    </g>
    <g text-rendering="geometricPrecision" stroke-miterlimit="1.45" shape-rendering="geometricPrecision" transform="matrix(1,0,0,1,247,-46)" stroke-linecap="butt">
      <rect fill="none" x="-55.2" width="134.8" height="30" y="207.2" clip-path="url(#clipPath2)"/>
      <text x="-49.7922" xml:space="preserve" y="226.3543" clip-path="url(#clipPath2)" font-family="sans-serif" stroke="none">StructureConnection</text>
    </g>
    <g fill="aqua" text-rendering="geometricPrecision" shape-rendering="geometricPrecision" transform="matrix(1,0,0,1,247,-46)" stroke="aqua">
      <rect x="493.2" width="98" height="30" y="258.6" clip-path="url(#clipPath2)" stroke="none"/>
    </g>
    <g text-rendering="geometricPrecision" stroke-miterlimit="1.45" shape-rendering="geometricPrecision" transform="matrix(1,0,0,1,247,-46)" stroke-linecap="butt">
      <rect fill="none" x="493.2" width="98" height="30" y="258.6" clip-path="url(#clipPath2)"/>
      <text x="490.8455" xml:space="preserve" y="277.7543" clip-path="url(#clipPath2)" font-family="sans-serif" stroke="none">HazardCapability</text>
    </g>
    <g fill="aqua" text-rendering="geometricPrecision" shape-rendering="geometricPrecision" transform="matrix(1,0,0,1,247,-46)" stroke="aqua">
      <rect x="45.7333" width="148.4" height="30" y="297.6" clip-path="url(#clipPath2)" stroke="none"/>
    </g>
    <g text-rendering="geometricPrecision" stroke-miterlimit="1.45" shape-rendering="geometricPrecision" transform="matrix(1,0,0,1,247,-46)" stroke-linecap="butt">
      <rect fill="none" x="45.7333" width="148.4" height="30" y="297.6" clip-path="url(#clipPath2)"/>
      <text x="36.1208" xml:space="preserve" y="316.7543" clip-path="url(#clipPath2)" font-family="sans-serif" stroke="none">ControlStructureConnection</text>
    </g>
    <g fill="rgb(255,204,0)" text-rendering="geometricPrecision" shape-rendering="geometricPrecision" transform="matrix(1,0,0,1,247,-46)" stroke="rgb(255,204,0)">
      <rect x="-176.3333" width="134.8" height="30" y="282.8" clip-path="url(#clipPath2)" stroke="none"/>
    </g>
    <g text-rendering="geometricPrecision" stroke-miterlimit="1.45" shape-rendering="geometricPrecision" transform="matrix(1,0,0,1,247,-46)" stroke-linecap="butt">
      <rect fill="none" x="-176.3333" width="134.8" height="30" y="282.8" clip-path="url(#clipPath2)"/>
      <text x="-165.8806" xml:space="preserve" y="301.9543" clip-path="url(#clipPath2)" font-family="sans-serif" stroke="none">ProcessConnection</text>
    </g>
    <g fill="aqua" text-rendering="geometricPrecision" shape-rendering="geometricPrecision" transform="matrix(1,0,0,1,247,-46)" stroke="aqua">
      <rect x="52.5333" width="134.8" height="30" y="330.2" clip-path="url(#clipPath2)" stroke="none"/>
    </g>
    <g text-rendering="geometricPrecision" stroke-miterlimit="1.45" shape-rendering="geometricPrecision" transform="matrix(1,0,0,1,247,-46)" stroke-linecap="butt">
      <rect fill="none" x="52.5333" width="134.8" height="30" y="330.2" clip-path="url(#clipPath2)"/>
      <text x="45.2673" xml:space="preserve" y="349.3543" clip-path="url(#clipPath2)" font-family="sans-serif" stroke="none">ActionControlConnection</text>
    </g>
    <g fill="aqua" text-rendering="geometricPrecision" shape-rendering="geometricPrecision" transform="matrix(1,0,0,1,247,-46)" stroke="aqua">
      <rect x="52.5333" width="158.8" height="30" y="360.2" clip-path="url(#clipPath2)" stroke="none"/>
    </g>
    <g text-rendering="geometricPrecision" stroke-miterlimit="1.45" shape-rendering="geometricPrecision" transform="matrix(1,0,0,1,247,-46)" stroke-linecap="butt">
      <rect fill="none" x="52.5333" width="158.8" height="30" y="360.2" clip-path="url(#clipPath2)"/>
      <text x="47.2624" xml:space="preserve" y="379.3543" clip-path="url(#clipPath2)" font-family="sans-serif" stroke="none">FeedbackControlConnection</text>
    </g>
    <g fill="aqua" text-rendering="geometricPrecision" shape-rendering="geometricPrecision" transform="matrix(1,0,0,1,247,-46)" stroke="aqua">
      <rect x="52.5333" width="158.8" height="30" y="390.2" clip-path="url(#clipPath2)" stroke="none"/>
    </g>
    <g text-rendering="geometricPrecision" stroke-miterlimit="1.45" shape-rendering="geometricPrecision" transform="matrix(1,0,0,1,247,-46)" stroke-linecap="butt">
      <rect fill="none" x="52.5333" width="158.8" height="30" y="390.2" clip-path="url(#clipPath2)"/>
      <text x="41.3269" xml:space="preserve" y="409.3543" clip-path="url(#clipPath2)" font-family="sans-serif" stroke="none">InformationControlConnection</text>
    </g>
    <g fill="silver" text-rendering="geometricPrecision" shape-rendering="geometricPrecision" transform="matrix(1,0,0,1,247,-46)" stroke="silver">
      <rect x="-237.1333" width="134.8" height="30" y="371.4" clip-path="url(#clipPath2)" stroke="none"/>
    </g>
    <g text-rendering="geometricPrecision" stroke-miterlimit="1.45" shape-rendering="geometricPrecision" transform="matrix(1,0,0,1,247,-46)" stroke-linecap="butt">
      <rect fill="none" x="-237.1333" width="134.8" height="30" y="371.4" clip-path="url(#clipPath2)"/>
      <text x="-224.9345" y="383.5699" clip-path="url(#clipPath2)" font-family="sans-serif" font-style="italic" stroke="none" xml:space="preserve">&lt;&lt;Depracated&gt;&gt;</text>
      <text x="-244.7773" y="397.5387" clip-path="url(#clipPath2)" font-family="sans-serif" font-style="italic" stroke="none" xml:space="preserve">DirectProcessConnection</text>
    </g>
    <g fill="rgb(255,204,0)" text-rendering="geometricPrecision" shape-rendering="geometricPrecision" transform="matrix(1,0,0,1,247,-46)" stroke="rgb(255,204,0)">
      <rect x="-237.1333" width="134.8" height="30" y="336.4" clip-path="url(#clipPath2)" stroke="none"/>
    </g>
    <g text-rendering="geometricPrecision" stroke-miterlimit="1.45" shape-rendering="geometricPrecision" transform="matrix(1,0,0,1,247,-46)" stroke-linecap="butt">
      <rect fill="none" x="-237.1333" width="134.8" height="30" y="336.4" clip-path="url(#clipPath2)"/>
      <text x="-217.7656" xml:space="preserve" y="355.5543" clip-path="url(#clipPath2)" font-family="sans-serif" stroke="none">NextConnection</text>
      <path fill="none" d="M426.3233 327.6 L388.9684 404.6022" clip-path="url(#clipPath2)"/>
      <path d="M385.4767 411.8 L395.2129 403.1857 L389.4049 403.7025 L386.2157 398.821 Z" clip-path="url(#clipPath2)" stroke="none"/>
      <text x="401.7919" xml:space="preserve" y="401.9699" clip-path="url(#clipPath2)" font-family="sans-serif" stroke="none">rdf:type</text>
      <path fill="none" d="M306.6459 297.6111 L306.5203 295.9816 L305.3897 291.8649 L303.4784 288.0126 L300.8079 284.5494 L297.4 281.6 L293.472 279.3901 L289.3098 278.0479 L285.0381 277.5517 L280.7816 277.8797 L276.6649 279.0103 L272.8126 280.9217 L269.3494 283.5921 L266.4 287 L264.2602 290.8034 L264.2364 290.9006" clip-path="url(#clipPath2)"/>
      <path fill="white" d="M262.5328 297.6901 L259.3867 289.6837 L265.9399 284.1111 L269.0861 292.1174 Z" clip-path="url(#clipPath2)" stroke="none"/>
      <path fill="none" d="M262.5328 297.6901 L259.3867 289.6837 L265.9399 284.1111 L269.0861 292.1174 Z" clip-path="url(#clipPath2)"/>
      <path fill="none" d="M379.8 312.6 L352.8 312.6" clip-path="url(#clipPath2)"/>
      <path fill="white" d="M345.8 312.6 L352.8 307.6 L359.8 312.6 L352.8 317.6 Z" clip-path="url(#clipPath2)" stroke="none"/>
      <path fill="none" d="M345.8 312.6 L352.8 307.6 L359.8 312.6 L352.8 317.6 Z" clip-path="url(#clipPath2)"/>
      <path fill="none" d="M335.1561 417.2 L302.8 417.2 L302.8 334.6" clip-path="url(#clipPath2)"/>
      <path fill="white" d="M302.8 327.6 L307.8 334.6 L302.8 341.6 L297.8 334.6 Z" clip-path="url(#clipPath2)" stroke="none"/>
      <path fill="none" d="M302.8 327.6 L307.8 334.6 L302.8 341.6 L297.8 334.6 Z" clip-path="url(#clipPath2)"/>
      <path fill="none" d="M312.7037 327.6 L363.8885 405.1239" clip-path="url(#clipPath2)"/>
      <path d="M368.2963 411.8 L365.8571 399.0309 L363.3375 404.2893 L357.5119 404.5407 Z" clip-path="url(#clipPath2)" stroke="none"/>
      <text x="316.6875" xml:space="preserve" y="373.8543" clip-path="url(#clipPath2)" font-family="sans-serif" stroke="none">rdf:type</text>
      <path fill="none" d="M313 297.6 L348.7654 245.0039" clip-path="url(#clipPath2)"/>
      <path fill="white" d="M357.2 232.6 L343.2415 242.457 L353.1646 249.2047 Z" clip-path="url(#clipPath2)" stroke="none"/>
      <path fill="none" d="M357.2 232.6 L343.2415 242.457 L353.1646 249.2047 Z" clip-path="url(#clipPath2)"/>
      <path fill="none" d="M423.1474 297.6 L386.4285 244.9067" clip-path="url(#clipPath2)"/>
      <path fill="white" d="M377.8526 232.6 L382.0775 249.1575 L391.9229 242.2968 Z" clip-path="url(#clipPath2)" stroke="none"/>
      <path fill="none" d="M377.8526 232.6 L382.0775 249.1575 L391.9229 242.2968 Z" clip-path="url(#clipPath2)"/>
      <path fill="none" d="M367.4 202.6 L367.4 191 L239.8 191 L239.8 157.6" clip-path="url(#clipPath2)"/>
      <path fill="white" d="M239.8 142.6 L233.8 158.6 L245.8 158.6 Z" clip-path="url(#clipPath2)" stroke="none"/>
      <path fill="none" d="M239.8 142.6 L233.8 158.6 L245.8 158.6 Z" clip-path="url(#clipPath2)"/>
      <path fill="none" d="M335.2 426.8 L239.8 426.8 L239.8 157.6" clip-path="url(#clipPath2)"/>
      <path fill="white" d="M239.8 142.6 L233.8 158.6 L245.8 158.6 Z" clip-path="url(#clipPath2)" stroke="none"/>
      <path fill="none" d="M239.8 142.6 L233.8 158.6 L245.8 158.6 Z" clip-path="url(#clipPath2)"/>
      <path fill="none" d="M288.8 127.6 L563.8 127.6 L563.8 194.5815" clip-path="url(#clipPath2)"/>
      <path d="M563.8 202.5815 L568.8 190.5815 L563.8 193.5815 L558.8 190.5815 Z" clip-path="url(#clipPath2)" stroke="none"/>
      <text x="537.931" xml:space="preserve" y="112.1114" clip-path="url(#clipPath2)" font-family="sans-serif" stroke="none">has capability</text>
      <path fill="none" d="M542.2 202.6 L542.2 191 L239.8 191 L239.8 157.6" clip-path="url(#clipPath2)"/>
      <path fill="white" d="M239.8 142.6 L233.8 158.6 L245.8 158.6 Z" clip-path="url(#clipPath2)" stroke="none"/>
      <path fill="none" d="M239.8 142.6 L233.8 158.6 L245.8 158.6 Z" clip-path="url(#clipPath2)"/>
      <path fill="none" d="M239.8 112.6 L239.8 91.8" clip-path="url(#clipPath2)"/>
      <path fill="white" d="M239.8 76.8 L233.8 92.8 L245.8 92.8 Z" clip-path="url(#clipPath2)" stroke="none"/>
      <path fill="none" d="M239.8 76.8 L233.8 92.8 L245.8 92.8 Z" clip-path="url(#clipPath2)"/>
      <path fill="none" d="M12.2 207.2 L12.2 191 L239.8 191 L239.8 157.6" clip-path="url(#clipPath2)"/>
      <path fill="white" d="M239.8 142.6 L233.8 158.6 L245.8 158.6 Z" clip-path="url(#clipPath2)" stroke="none"/>
      <path fill="none" d="M239.8 142.6 L233.8 158.6 L245.8 158.6 Z" clip-path="url(#clipPath2)"/>
      <path fill="none" d="M542.2 258.6 L542.2 247.6" clip-path="url(#clipPath2)"/>
      <path fill="white" d="M542.2 232.6 L536.2 248.6 L548.2 248.6 Z" clip-path="url(#clipPath2)" stroke="none"/>
      <path fill="none" d="M542.2 232.6 L536.2 248.6 L548.2 248.6 Z" clip-path="url(#clipPath2)"/>
      <path fill="none" d="M45.7333 312.6 L12.2 312.6 L12.2 252.2" clip-path="url(#clipPath2)"/>
      <path fill="white" d="M12.2 237.2 L6.2 253.2 L18.2 253.2 Z" clip-path="url(#clipPath2)" stroke="none"/>
      <path fill="none" d="M12.2 237.2 L6.2 253.2 L18.2 253.2 Z" clip-path="url(#clipPath2)"/>
      <path fill="none" d="M-41.5333 297.8 L12.2 297.8 L12.2 252.2" clip-path="url(#clipPath2)"/>
      <path fill="white" d="M12.2 237.2 L6.2 253.2 L18.2 253.2 Z" clip-path="url(#clipPath2)" stroke="none"/>
      <path fill="none" d="M12.2 237.2 L6.2 253.2 L18.2 253.2 Z" clip-path="url(#clipPath2)"/>
      <path fill="none" d="M52.5333 345.2 L12.2 345.2 L12.2 252.2" clip-path="url(#clipPath2)"/>
      <path fill="white" d="M12.2 237.2 L6.2 253.2 L18.2 253.2 Z" clip-path="url(#clipPath2)" stroke="none"/>
      <path fill="none" d="M12.2 237.2 L6.2 253.2 L18.2 253.2 Z" clip-path="url(#clipPath2)"/>
      <path fill="none" d="M52.5333 375.2 L12.2 375.2 L12.2 252.2" clip-path="url(#clipPath2)"/>
      <path fill="white" d="M12.2 237.2 L6.2 253.2 L18.2 253.2 Z" clip-path="url(#clipPath2)" stroke="none"/>
      <path fill="none" d="M12.2 237.2 L6.2 253.2 L18.2 253.2 Z" clip-path="url(#clipPath2)"/>
      <path fill="none" d="M52.5333 405.2 L12.2 405.2 L12.2 252.2" clip-path="url(#clipPath2)"/>
      <path fill="white" d="M12.2 237.2 L6.2 253.2 L18.2 253.2 Z" clip-path="url(#clipPath2)" stroke="none"/>
      <path fill="none" d="M12.2 237.2 L6.2 253.2 L18.2 253.2 Z" clip-path="url(#clipPath2)"/>
      <path fill="none" d="M-102.3333 386.4 L-91.9333 386.4 L-91.9333 327.7869" clip-path="url(#clipPath2)"/>
      <path fill="white" d="M-91.9333 312.7869 L-97.9333 328.7869 L-85.9333 328.7869 Z" clip-path="url(#clipPath2)" stroke="none"/>
      <path fill="none" d="M-91.9333 312.7869 L-97.9333 328.7869 L-85.9333 328.7869 Z" clip-path="url(#clipPath2)"/>
      <path fill="none" d="M-102.3333 351.4 L-91.9333 351.4 L-91.9333 327.7959" clip-path="url(#clipPath2)"/>
      <path fill="white" d="M-91.9333 312.7959 L-97.9333 328.7959 L-85.9333 328.7959 Z" clip-path="url(#clipPath2)" stroke="none"/>
      <path fill="none" d="M-91.9333 312.7959 L-97.9333 328.7959 L-85.9333 328.7959 Z" clip-path="url(#clipPath2)"/>
    </g>
  </g>
</svg>
